Coordinates
version=1
nRows=14
nColumns=24
inDegrees=yes

Units are S.I. units (second, meters, Newtons, ...)
If the header above contains a line with 'inDegrees', this indicates whether rotational values are in degrees (yes) or radians (no).

endheader
time	pelvis_tilt	pelvis_list	pelvis_rotation	pelvis_tx	pelvis_ty	pelvis_tz	hip_flexion_r	hip_adduction_r	hip_rotation_r	knee_angle_r	ankle_angle_r	subtalar_angle_r	mtp_angle_r	hip_flexion_l	hip_adduction_l	hip_rotation_l	knee_angle_l	ankle_angle_l	subtalar_angle_l	mtp_angle_l	lumbar_extension	lumbar_bending	lumbar_rotation
      1.00000000	      4.88121669	     -0.02054600	      0.29265883	      0.59298413	      1.04456507	      0.04550483	     -2.71159743	      1.86772357	     -3.73570735	    -11.65474712	      7.96737770	     -0.00000117	      0.00000000	     18.74130935	     -3.05010872	     -4.14153238	    -57.77102933	      1.43038504	     -0.00000129	      0.00000000	    -16.43877461	      1.07407548	      1.18342713
      1.01700000	      4.93653906	     -0.04857674	      0.03539548	      0.59108078	      1.04449678	      0.04660430	     -4.19078984	      1.99063109	     -3.52026954	    -10.89036475	      8.35846583	     -0.00000115	      0.00000000	     19.42904966	     -3.07986023	     -4.56569868	    -53.51272230	      1.67401480	     -0.00000239	      0.00000000	    -16.58282834	      0.94818224	      1.52602607
      1.03300000	      4.94991584	     -0.24717653	     -0.13653131	      0.58910887	      1.04396758	      0.04778140	     -5.70471299	      2.30549749	     -3.41694595	     -9.97289845	      8.67160059	     -0.00000128	      0.00000000	     19.95350568	     -3.43351550	     -5.28554098	    -48.74701305	      1.61870538	     -0.00000360	      0.00000000	    -16.71713431	      1.03310729	      1.84339249
      1.05000000	      5.10431448	     -0.59419600	     -0.26038834	      0.58717150	      1.04329803	      0.04849708	     -7.35205606	      2.74206201	     -3.32034161	     -9.11108504	      8.96752045	     -0.00000120	      0.00000000	     20.08680577	     -3.95664069	     -6.27858918	    -43.48951510	      1.27626635	     -0.00000498	      0.00000000	    -17.04700656	      1.27489239	      1.97794687
      1.06700000	      4.98303167	     -1.18132581	     -0.54944312	      0.58506919	      1.04160311	      0.04935698	     -8.61269153	      3.39031128	     -2.99138799	     -8.41771170	      9.30001699	     -0.00000127	      0.00000000	     20.35232279	     -4.74095820	     -7.54274197	    -37.98527013	      0.74095241	     -0.00000598	      0.00000000	    -16.91317717	      1.79792890	      2.46107926
      1.08300000	      4.90075628	     -1.58006309	     -0.80015645	      0.58337658	      1.03968699	      0.04963588	     -9.98599995	      3.78227709	     -2.54776018	     -7.67073132	      9.66987403	     -0.00000128	      0.00000000	     20.29617589	     -5.15086040	     -8.87488801	    -32.07525833	     -0.02509857	     -0.00000645	      0.00000000	    -16.97185981	      2.00792631	      2.64874946
      1.10000000	      4.74864747	     -2.13858323	     -1.06164946	      0.58208728	      1.03725559	      0.05012780	    -11.37180613	      4.33648016	     -2.07825940	     -6.83335173	      9.96070786	     -0.00000108	      0.00000000	     20.28433872	     -5.58043060	     -9.87488958	    -26.31232413	     -0.72581660	     -0.00000621	      0.00000000	    -16.83070004	      2.46880366	      3.03429967
      1.11700000	      4.55061134	     -2.61185470	     -1.30879537	      0.58080262	      1.03445813	      0.05034414	    -12.58486273	      4.77324114	     -1.48484096	     -6.29529216	     10.41585368	     -0.00000099	      0.00000000	     20.18797124	     -5.71248429	    -10.26316097	    -20.50389810	     -1.32679285	     -0.00000545	      0.00000000	    -16.73163975	      2.84325601	      3.11957514
      1.13300000	      4.40370150	     -3.16987126	     -1.79726012	      0.57924550	      1.03138887	      0.05032572	    -13.71161676	      5.18714984	     -0.63438362	     -6.04196869	     10.96265005	     -0.00000098	      0.00000000	     20.03486745	     -5.90708993	    -10.10471355	    -15.09454646	     -1.62519243	     -0.00000432	      0.00000000	    -16.69462501	      3.17331368	      3.60846734
      1.15000000	      4.47064348	     -3.67255377	     -2.03079198	      0.57844162	      1.02848437	      0.04983867	    -15.13576318	      5.55745176	     -0.01138201	     -5.71846664	     11.44365698	     -0.00000086	      0.00000000	     19.49595936	     -5.93701336	     -9.07926123	     -9.91164098	     -1.73064669	     -0.00000323	      0.00000000	    -16.81635371	      3.60520698	      3.94976797
      1.16700000	      4.42795161	     -4.01306963	     -2.37672965	      0.57805942	      1.02518832	      0.04966524	    -16.50424964	      5.72640201	      0.54833666	     -5.33711887	     11.89693608	     -0.00000091	      0.00000000	     19.13672879	     -5.95375140	     -7.86305648	     -5.68839813	     -1.52042471	     -0.00000216	      0.00000000	    -16.91719209	      3.63675561	      3.90027374
      1.18300000	      4.54505814	     -4.35642246	     -2.92047023	      0.57751076	      1.02230131	      0.04926146	    -17.78686167	      5.76289708	      1.24503449	     -5.46045156	     12.42698453	     -0.00000069	      0.00000000	     18.68557104	     -6.10416030	     -6.84660027	     -2.58635949	     -1.11972616	     -0.00000146	      0.00000000	    -17.03609648	      3.75419718	      4.53707834
      1.20000000	      4.43788416	     -4.46861602	     -3.19803494	      0.57780755	      1.01926823	      0.04877159	    -18.90347765	      5.65064811	      1.60370239	     -5.47404738	     12.80805151	     -0.00000052	      0.00000000	     18.60758620	     -6.02045833	     -5.86727653	     -0.71931588	     -0.75751536	     -0.00000094	      0.00000000	    -16.92759949	      3.53574479	      4.26072608
      1.21700000	      4.56853315	     -4.56984543	     -3.44357425	      0.57738686	      1.01703845	      0.04797715	    -19.84649978	      5.49489998	      1.96374115	     -6.23889151	     13.29384743	     -0.00000021	      0.00000000	     18.66596034	     -5.96002120	     -5.05712437	     -0.58010478	     -0.42687057	     -0.00000082	      0.00000000	    -17.15685418	      3.28639181	      4.38226686
